<svg width="334" height="240" viewBox="0 0 334 240" fill="none" xmlns="http://www.w3.org/2000/svg">
<g filter="url(#filter0_d_1_330)">
<rect x="218.257" y="111.015" width="49.8718" height="7.71281" fill="white"/>
<rect x="219.59" y="129.891" width="30.1423" height="18.1802" fill="white"/>
<path d="M255.345 105.538L257.823 103.1" stroke="#1B1B1B" stroke-width="0.7" stroke-linecap="round" stroke-linejoin="round"/>
<path d="M264.362 1.00009H167.789V1H132C139.209 1 145.054 6.8751 145.054 14.1224V23.845V23.845V183.494H277.416V14.1224C277.416 6.8751 271.571 1.00009 264.362 1.00009Z" fill="#1B1B1B"/>
<path fill-rule="evenodd" clip-rule="evenodd" d="M264.362 1.00009H167.789V1H132C139.209 1 145.054 6.8751 145.054 14.1224V23.845V23.845V183.494H277.416V14.1224C277.416 6.8751 271.571 1.00009 264.362 1.00009Z" stroke="#1B1B1B" stroke-width="0.7" stroke-linecap="round" stroke-linejoin="round"/>
<path d="M158.108 183.494V183.494C157.321 183.494 158.856 183.628 158.108 183.494Z" fill="#1B1B1B" stroke="#1B1B1B" stroke-width="0.7" stroke-linecap="round" stroke-linejoin="round"/>
<g opacity="0.73">
<path fill-rule="evenodd" clip-rule="evenodd" d="M158.126 60.8189C158.126 55.2949 162.581 50.8167 168.076 50.8167C173.572 50.8167 178.026 55.2948 178.026 60.8189C178.026 66.343 173.572 70.8212 168.076 70.8212C162.581 70.8212 158.126 66.3429 158.126 60.8189ZM163.689 62.646C164.429 64.4126 166.161 65.5585 168.076 65.5485C169.327 65.5452 170.526 65.0451 171.408 64.1581C172.291 63.2711 172.784 62.07 172.781 60.8189C172.781 58.9037 171.626 57.1776 169.856 56.447C168.085 55.7164 166.049 56.1256 164.699 57.4834C163.348 58.8412 162.949 60.8795 163.689 62.646Z" fill="white"/>
<path d="M168.076 65.5485L168.075 65.1985L168.075 65.1985L168.076 65.5485ZM163.689 62.646L163.366 62.7813L163.366 62.7813L163.689 62.646ZM171.408 64.1581L171.656 64.4049L171.656 64.4049L171.408 64.1581ZM172.781 60.8189L172.431 60.8189L172.431 60.8198L172.781 60.8189ZM169.856 56.447L169.722 56.7705L169.722 56.7705L169.856 56.447ZM168.076 50.4667C162.386 50.4667 157.776 55.1033 157.776 60.8189H158.476C158.476 55.4864 162.776 51.1667 168.076 51.1667V50.4667ZM178.376 60.8189C178.376 55.1032 173.767 50.4667 168.076 50.4667V51.1667C173.377 51.1667 177.676 55.4864 177.676 60.8189H178.376ZM168.076 71.1712C173.767 71.1712 178.376 66.5346 178.376 60.8189H177.676C177.676 66.1515 173.377 70.4712 168.076 70.4712V71.1712ZM157.776 60.8189C157.776 66.5345 162.386 71.1712 168.076 71.1712V70.4712C162.776 70.4712 158.476 66.1514 158.476 60.8189H157.776ZM168.075 65.1985C166.301 65.2078 164.697 64.1466 164.012 62.5108L163.366 62.7813C164.161 64.6785 166.021 65.9092 168.078 65.8985L168.075 65.1985ZM171.16 63.9112C170.343 64.7324 169.234 65.1954 168.075 65.1985L168.077 65.8985C169.421 65.8949 170.709 65.3577 171.656 64.4049L171.16 63.9112ZM172.431 60.8198C172.434 61.9781 171.977 63.0901 171.16 63.9112L171.656 64.4049C172.604 63.4521 173.135 62.1619 173.131 60.818L172.431 60.8198ZM169.722 56.7705C171.362 57.447 172.431 59.0454 172.431 60.8189L173.131 60.8189C173.131 58.762 171.891 56.9081 169.989 56.1235L169.722 56.7705ZM164.947 57.7302C166.197 56.4729 168.083 56.094 169.722 56.7705L169.989 56.1235C168.088 55.3388 165.901 55.7783 164.45 57.2366L164.947 57.7302ZM164.012 62.5108C163.327 60.875 163.696 58.9876 164.947 57.7302L164.45 57.2366C163 58.6948 162.572 60.884 163.366 62.7813L164.012 62.5108Z" fill="#1B1B1B"/>
<rect x="182.725" y="53.8517" width="82.6409" height="5.5806" rx="2.74095" fill="white" stroke="#1B1B1B" stroke-width="0.7" stroke-linecap="round" stroke-linejoin="round"/>
<rect x="182.725" y="62.2899" width="30.2108" height="5.49625" rx="2.74095" fill="white" stroke="#1B1B1B" stroke-width="0.7" stroke-linecap="round" stroke-linejoin="round"/>
<rect x="216.261" y="62.2899" width="30.2108" height="5.49625" rx="2.74095" fill="white" stroke="#1B1B1B" stroke-width="0.7" stroke-linecap="round" stroke-linejoin="round"/>
</g>
<g opacity="0.73">
<path fill-rule="evenodd" clip-rule="evenodd" d="M158.126 133.873C158.126 128.349 162.581 123.87 168.076 123.87C173.572 123.87 178.026 128.349 178.026 133.873C178.026 139.397 173.572 143.875 168.076 143.875C162.581 143.875 158.126 139.397 158.126 133.873ZM163.689 135.7C164.429 137.466 166.161 138.612 168.076 138.602C169.327 138.599 170.526 138.099 171.408 137.212C172.291 136.325 172.784 135.124 172.781 133.873C172.781 131.957 171.626 130.231 169.856 129.501C168.085 128.77 166.049 129.179 164.699 130.537C163.348 131.895 162.949 133.933 163.689 135.7Z" fill="white"/>
<path d="M168.076 138.602L168.075 138.252L168.075 138.252L168.076 138.602ZM163.689 135.7L163.366 135.835L163.366 135.835L163.689 135.7ZM171.408 137.212L171.656 137.459L171.656 137.459L171.408 137.212ZM172.781 133.873L172.431 133.873L172.431 133.874L172.781 133.873ZM169.856 129.501L169.722 129.824L169.722 129.824L169.856 129.501ZM168.076 123.52C162.386 123.52 157.776 128.157 157.776 133.873H158.476C158.476 128.54 162.776 124.22 168.076 124.22V123.52ZM178.376 133.873C178.376 128.157 173.767 123.52 168.076 123.52V124.22C173.377 124.22 177.676 128.54 177.676 133.873H178.376ZM168.076 144.225C173.767 144.225 178.376 139.588 178.376 133.873H177.676C177.676 139.205 173.377 143.525 168.076 143.525V144.225ZM157.776 133.873C157.776 139.588 162.386 144.225 168.076 144.225V143.525C162.776 143.525 158.476 139.205 158.476 133.873H157.776ZM168.075 138.252C166.301 138.262 164.697 137.2 164.012 135.565L163.366 135.835C164.161 137.732 166.021 138.963 168.078 138.952L168.075 138.252ZM171.16 136.965C170.343 137.786 169.234 138.249 168.075 138.252L168.077 138.952C169.421 138.949 170.709 138.411 171.656 137.459L171.16 136.965ZM172.431 133.874C172.434 135.032 171.977 136.144 171.16 136.965L171.656 137.459C172.604 136.506 173.135 135.216 173.131 133.872L172.431 133.874ZM169.722 129.824C171.362 130.501 172.431 132.099 172.431 133.873L173.131 133.873C173.131 131.816 171.891 129.962 169.989 129.177L169.722 129.824ZM164.947 130.784C166.197 129.527 168.083 129.148 169.722 129.824L169.989 129.177C168.088 128.393 165.901 128.832 164.45 130.29L164.947 130.784ZM164.012 135.565C163.327 133.929 163.696 132.041 164.947 130.784L164.45 130.29C163 131.749 162.572 133.938 163.366 135.835L164.012 135.565Z" fill="#1B1B1B"/>
<rect x="182.725" y="126.906" width="82.6409" height="5.5806" rx="2.74095" fill="white" stroke="#1B1B1B" stroke-width="0.7" stroke-linecap="round" stroke-linejoin="round"/>
<rect x="182.725" y="135.344" width="30.2108" height="5.49625" rx="2.74095" fill="white" stroke="#1B1B1B" stroke-width="0.7" stroke-linecap="round" stroke-linejoin="round"/>
<rect x="216.261" y="135.344" width="30.2108" height="5.49625" rx="2.74095" fill="white" stroke="#1B1B1B" stroke-width="0.7" stroke-linecap="round" stroke-linejoin="round"/>
</g>
<rect x="197.039" y="21.5031" width="29.4137" height="5.69657" rx="1.62334" fill="white" stroke="#1B1B1B" stroke-width="0.7" stroke-linecap="round" stroke-linejoin="round"/>
<rect x="187.055" y="32.7606" width="49.3826" height="3.25518" rx="1.62334" fill="white" stroke="#1B1B1B" stroke-width="0.7" stroke-linecap="round" stroke-linejoin="round"/>
<path fill-rule="evenodd" clip-rule="evenodd" d="M158.126 97.3458C158.126 91.8217 162.581 87.3436 168.076 87.3436C173.572 87.3436 178.026 91.8217 178.026 97.3458C178.026 102.87 173.572 107.348 168.076 107.348C162.581 107.348 158.126 102.87 158.126 97.3458ZM163.689 99.1729C164.429 100.939 166.161 102.085 168.076 102.075V102.075C169.327 102.072 170.526 101.572 171.408 100.685C172.291 99.798 172.784 98.5969 172.781 97.3458C172.781 95.4306 171.626 93.7045 169.856 92.9739C168.085 92.2433 166.049 92.6525 164.699 94.0103C163.348 95.3681 162.949 97.4064 163.689 99.1729Z" fill="white"/>
<path d="M168.076 102.075H168.426C168.426 101.982 168.389 101.893 168.323 101.827C168.257 101.762 168.168 101.725 168.075 101.725L168.076 102.075ZM163.689 99.1729L163.366 99.3081L163.366 99.3081L163.689 99.1729ZM168.076 102.075H167.726C167.726 102.168 167.763 102.258 167.829 102.323C167.895 102.389 167.984 102.426 168.077 102.425L168.076 102.075ZM171.408 100.685L171.16 100.438L171.16 100.438L171.408 100.685ZM172.781 97.3458L172.431 97.3458L172.431 97.3467L172.781 97.3458ZM169.856 92.9739L169.722 93.2974L169.722 93.2974L169.856 92.9739ZM168.076 86.9936C162.386 86.9936 157.776 91.6302 157.776 97.3458H158.476C158.476 92.0133 162.776 87.6936 168.076 87.6936V86.9936ZM178.376 97.3458C178.376 91.6301 173.767 86.9936 168.076 86.9936V87.6936C173.377 87.6936 177.676 92.0132 177.676 97.3458H178.376ZM168.076 107.698C173.767 107.698 178.376 103.061 178.376 97.3458H177.676C177.676 102.678 173.377 106.998 168.076 106.998V107.698ZM157.776 97.3458C157.776 103.061 162.386 107.698 168.076 107.698V106.998C162.776 106.998 158.476 102.678 158.476 97.3458H157.776ZM168.075 101.725C166.301 101.735 164.697 100.674 164.012 99.0377L163.366 99.3081C164.161 101.205 166.021 102.436 168.078 102.425L168.075 101.725ZM168.426 102.075V102.075H167.726V102.075H168.426ZM171.16 100.438C170.343 101.259 169.234 101.722 168.075 101.725L168.077 102.425C169.421 102.422 170.709 101.885 171.656 100.932L171.16 100.438ZM172.431 97.3467C172.434 98.505 171.977 99.617 171.16 100.438L171.656 100.932C172.604 99.979 173.135 98.6888 173.131 97.3449L172.431 97.3467ZM169.722 93.2974C171.362 93.9739 172.431 95.5723 172.431 97.3458L173.131 97.3458C173.131 95.2889 171.891 93.435 169.989 92.6503L169.722 93.2974ZM164.947 94.2571C166.197 92.9998 168.083 92.6209 169.722 93.2974L169.989 92.6503C168.088 91.8657 165.901 92.3052 164.45 93.7635L164.947 94.2571ZM164.012 99.0377C163.327 97.4019 163.696 95.5144 164.947 94.2571L164.45 93.7635C163 95.2217 162.572 97.4109 163.366 99.3081L164.012 99.0377Z" fill="#1B1B1B"/>
<rect x="182.725" y="90.3786" width="82.6409" height="5.5806" rx="2.74095" fill="white" stroke="#1B1B1B" stroke-width="0.7" stroke-linecap="round" stroke-linejoin="round"/>
<rect x="182.725" y="98.8168" width="30.2108" height="5.49625" rx="2.74095" fill="white" stroke="#1B1B1B" stroke-width="0.7" stroke-linecap="round" stroke-linejoin="round"/>
<rect x="216.261" y="98.8168" width="30.2108" height="5.49625" rx="2.74095" fill="white" stroke="#1B1B1B" stroke-width="0.7" stroke-linecap="round" stroke-linejoin="round"/>
<path d="M170.168 18.4791L166.686 21.2793" stroke="#1B1B1B" stroke-width="0.7" stroke-linecap="round" stroke-linejoin="round"/>
<path d="M256.557 165.524C253.8 168.309 250.449 170.435 246.754 171.742" stroke="#1B1B1B" stroke-width="0.7" stroke-linecap="round" stroke-linejoin="round"/>
<path d="M151.348 89.2128L149.566 91.6549" stroke="#1B1B1B" stroke-width="0.7" stroke-linecap="round" stroke-linejoin="round"/>
<path d="M319.229 42.0847C317.419 44.022 315.292 45.637 312.939 46.8609" stroke="#1B1B1B" stroke-width="0.7" stroke-linecap="round" stroke-linejoin="round"/>
<path fill-rule="evenodd" clip-rule="evenodd" d="M217.605 146.947C222.567 140.277 254.025 159.248 269.402 169.122C269.728 172.847 268.745 178.326 267.987 181.82C236.279 178.071 205.853 162.745 217.605 146.947Z" stroke="#1B1B1B" stroke-width="0.7" stroke-linecap="round" stroke-linejoin="round"/>
<path d="M228.194 173.127L224.855 172.664C224.855 172.664 218.936 179.908 234.416 183.015L228.194 173.127Z" fill="#1B1B1B" stroke="#1B1B1B" stroke-width="0.7" stroke-linecap="round" stroke-linejoin="round"/>
<path d="M250.15 174.313C250.15 174.313 240.055 172.803 232.675 172.227C228.686 175.382 234.416 183.014 234.416 183.015C234.965 183.122 235.519 183.199 236.076 183.246C245.834 184.067 254.181 183.223 255.31 182.341C256.439 181.458 250.15 174.313 250.15 174.313Z" fill="#1B1B1B" stroke="#1B1B1B" stroke-width="0.7" stroke-linecap="round" stroke-linejoin="round"/>
<ellipse cx="262.747" cy="123.247" rx="0.73544" ry="0.7393" fill="#1B1B1B"/>
<path d="M245.314 143.858C246.468 145.02 247.789 146.003 249.233 146.775" stroke="#1B1B1B" stroke-width="0.7" stroke-linecap="round" stroke-linejoin="round"/>
</g>
<g filter="url(#filter1_i_1_330)">
<path d="M105.605 212.19L108.856 210.024" stroke="#1B1B1B" stroke-width="0.7" stroke-linecap="round" stroke-linejoin="round"/>
<path d="M118.05 143.028L140.648 130.121C156.267 141.49 165.798 229.866 165.798 229.866L129.495 208.864L118.05 143.028Z" fill="#1B1B1B"/>
<path fill-rule="evenodd" clip-rule="evenodd" d="M118.05 143.028L140.648 130.121C156.267 141.49 165.798 229.866 165.798 229.866L129.495 208.864L118.05 143.028Z" stroke="#1B1B1B" stroke-width="0.7" stroke-linecap="round" stroke-linejoin="round"/>
<path d="M140.791 165.214C139.951 182.31 138.244 204.976 134.821 231.308L55.9439 225.705L24.2577 159.079L24.3806 128.066C24.3806 128.066 78.8365 73.3841 141.528 130.922" fill="#1B1B1B"/>
<mask id="mask0_1_330" style="mask-type:luminance" maskUnits="userSpaceOnUse" x="24" y="104" width="118" height="128">
<path fill-rule="evenodd" clip-rule="evenodd" d="M140.791 165.214C139.951 182.31 138.244 204.976 134.821 231.308L55.9439 225.705L24.2577 159.079L24.3806 128.066C24.3806 128.066 78.8365 73.3841 141.528 130.922" fill="white"/>
</mask>
<g mask="url(#mask0_1_330)">
<path d="M41.4475 161.345C64.9012 145.71 46.5274 204.68 69.7603 197.215C92.9932 189.75 95.727 209.082 95.727 209.082L65.4874 245.183L10.9983 220.508L29.2372 178.137" fill="#1B1B1B"/>
</g>
<path d="M140.791 165.214C139.951 182.31 138.244 204.976 134.821 231.308L55.9439 225.705L24.2577 159.079L24.3806 128.066C24.3806 128.066 78.8365 73.3841 141.528 130.922" stroke="#1B1B1B" stroke-width="0.7" stroke-linecap="round" stroke-linejoin="round"/>
<path d="M76.4208 105.456L82.993 77.6368L101.757 84.3769V107.809L102.368 116.79L99.914 122.277L94.7604 121.412L83.9721 120.362" fill="white"/>
<mask id="mask1_1_330" style="mask-type:luminance" maskUnits="userSpaceOnUse" x="76" y="77" width="27" height="46">
<path fill-rule="evenodd" clip-rule="evenodd" d="M76.4208 105.456L82.993 77.6368L101.757 84.3769V107.809L102.368 116.79L99.9139 122.277L94.7604 121.412L83.9721 120.362" fill="white"/>
</mask>
<g mask="url(#mask1_1_330)">
<path d="M107.561 112.659C83.8886 107.526 104.487 101.509 96.0535 97.1155C93.7334 95.9069 97.4263 83.3499 97.4263 83.3499L103.858 88.0056" fill="white"/>
</g>
<path d="M76.4208 105.456L82.993 77.6368L101.757 84.3769V107.809L102.368 116.79L99.914 122.277L94.7604 121.412L83.9721 120.362" stroke="#1B1B1B" stroke-width="0.7" stroke-linecap="round" stroke-linejoin="round"/>
<path d="M87.43 76.7892L94.0286 59.4897L112.575 43.4058C115.355 61.986 132.055 114.165 95.2454 94.0798" fill="white"/>
<path d="M87.43 76.7892L94.0286 59.4897L112.575 43.4058C115.355 61.986 132.055 114.165 95.2454 94.0798" stroke="#1B1B1B" stroke-width="0.7" stroke-linecap="round" stroke-linejoin="round"/>
<path d="M84.9173 77.9432C91.8869 81.0012 101.507 65.6892 97.3989 60.7498C97.3989 60.7498 109.14 65.9688 117.412 58.3916C145.472 62.3954 143.618 24.2433 119.005 35.1606C106.193 27.3587 91.9337 35.0622 92.5554 43.7923C82.9163 34.3655 64.1538 68.8328 84.9173 77.9432Z" fill="#1B1B1B" stroke="#1B1B1B" stroke-width="0.7" stroke-linecap="round" stroke-linejoin="round"/>
<path d="M83.7086 86.21C71.1494 74.481 80.5476 56.9396 94.8911 78.1535Z" fill="white"/>
<path d="M83.7086 86.21C71.1494 74.481 80.5476 56.9396 94.8911 78.1535" stroke="#1B1B1B" stroke-width="0.7" stroke-linecap="round" stroke-linejoin="round"/>
<path d="M111.131 73.3965V73.3965C110.69 73.5529 110.21 73.5092 109.798 73.2751C109.385 73.0411 109.075 72.6359 108.935 72.1493L108.032 69.0435C107.735 68.0301 108.239 66.9437 109.159 66.6128V66.6128C109.6 66.4564 110.08 66.5001 110.493 66.7341C110.905 66.9682 111.215 67.3734 111.355 67.86L112.259 70.9658C112.555 71.9792 112.051 73.0656 111.131 73.3965V73.3965Z" fill="#1B1B1B"/>
<path d="M108.848 59.9343C103.757 61.4754 103.309 64.176 106.549 63.4423C109.788 62.7086 112.175 58.9274 108.848 59.9343Z" fill="#1B1B1B"/>
<path d="M114.679 68.5863C122.056 70.7459 121.868 78.6786 117.132 78.4963Z" fill="white"/>
<path d="M114.679 68.5863C122.056 70.7459 121.868 78.6786 117.132 78.4963" stroke="#1B1B1B" stroke-width="0.7" stroke-linecap="round" stroke-linejoin="round"/>
<ellipse opacity="0.27" cx="3.98471" cy="3.23769" rx="3.98471" ry="3.23769" transform="matrix(0.987339 -0.158622 0.131579 0.991306 101.033 74.0026)" fill="white"/>
<path d="M108.303 80.4628C111.423 83.3536 114.683 81.786 114.683 81.786Z" fill="white"/>
<path d="M108.303 80.4628C111.423 83.3536 114.683 81.786 114.683 81.786" stroke="#1B1B1B" stroke-width="0.7" stroke-linecap="round" stroke-linejoin="round"/>
<path d="M103.872 134.136L94.7604 121.412C94.7604 121.412 102.176 119.007 102.682 102.818L109.976 109.575L103.872 134.136Z" fill="white" stroke="#1B1B1B" stroke-width="0.7" stroke-linecap="round" stroke-linejoin="round"/>
<path d="M66.7612 106.141C70.577 98.8291 78.092 97.4475 78.092 97.4475C78.092 97.4475 76.1709 115.271 94.7603 121.412L84.9953 136.132C84.9953 136.132 67.9395 118.212 66.7612 106.141Z" fill="white" stroke="#1B1B1B" stroke-width="0.7" stroke-linecap="round" stroke-linejoin="round"/>
<path d="M25.984 126.579C11.8008 138.499 -7.7206 201.655 5.25776 231.308L46.9989 211.312C46.9989 211.312 43.5307 221.216 43.5855 219.662C43.8442 212.316 47.9282 174.615 45.0539 157.461" fill="#1B1B1B"/>
<path d="M25.984 126.579C11.8008 138.499 -7.7206 201.655 5.25776 231.308L46.9989 211.312C46.9989 211.312 43.5307 221.216 43.5855 219.662C43.8442 212.316 47.9282 174.615 45.0539 157.461" stroke="#1B1B1B" stroke-width="0.7" stroke-linecap="round" stroke-linejoin="round"/>
<path d="M84.6141 205.509C84.6141 205.509 111.289 202.199 114.116 202.607C116.943 203.015 127.763 200.429 128.456 200.075C134.567 196.957 126.954 207.83 117.558 207.64C117.558 207.64 126.253 213.7 126.321 215.468C126.389 217.236 125.283 217.236 125.283 217.236C125.283 217.236 126.02 219.141 124.709 220.229C120.202 217.599 114.28 215.484 113.624 216.391C112.969 217.297 100.359 222.587 89.7872 220.229C79.2156 217.871 84.6141 205.509 84.6141 205.509Z" fill="white"/>
<mask id="mask2_1_330" style="mask-type:luminance" maskUnits="userSpaceOnUse" x="83" y="199" width="48" height="22">
<path fill-rule="evenodd" clip-rule="evenodd" d="M84.6141 205.509C84.6141 205.509 111.289 202.199 114.116 202.607C116.943 203.015 127.763 200.429 128.456 200.075C134.567 196.957 126.954 207.83 117.558 207.64C117.558 207.64 126.253 213.7 126.321 215.468C126.389 217.236 125.283 217.236 125.283 217.236C125.283 217.236 126.02 219.141 124.709 220.229C120.202 217.599 114.28 215.484 113.624 216.391C112.969 217.297 100.359 222.587 89.7872 220.229C79.2156 217.871 84.6141 205.509 84.6141 205.509Z" fill="white"/>
</mask>
<g mask="url(#mask2_1_330)">
<path d="M90.6909 205.509C95.4849 202.788 98.8039 219.383 99.6643 224.688C100.525 229.993 88.3552 225.096 88.3552 225.096" fill="white"/>
</g>
<path fill-rule="evenodd" clip-rule="evenodd" d="M84.6141 205.509C84.6141 205.509 111.289 202.199 114.116 202.607C116.943 203.015 127.763 200.429 128.456 200.075C134.567 196.957 126.954 207.83 117.558 207.64C117.558 207.64 126.253 213.7 126.321 215.468C126.389 217.236 125.283 217.236 125.283 217.236C125.283 217.236 126.02 219.141 124.709 220.229C120.202 217.599 114.28 215.484 113.624 216.391C112.969 217.297 100.359 222.587 89.7872 220.229C79.2156 217.871 84.6141 205.509 84.6141 205.509Z" stroke="#1B1B1B" stroke-width="0.7" stroke-linecap="round" stroke-linejoin="round"/>
<ellipse cx="95.1789" cy="138.499" rx="2.13953" ry="2.3675" fill="white" stroke="#1B1B1B" stroke-width="0.7" stroke-linecap="round" stroke-linejoin="round"/>
<ellipse cx="95.1789" cy="157.226" rx="2.13953" ry="2.3675" fill="white" stroke="#1B1B1B" stroke-width="0.7" stroke-linecap="round" stroke-linejoin="round"/>
<rect x="59.8587" y="225.705" width="69.2007" height="5.55512" fill="white" stroke="#1B1B1B" stroke-width="0.7" stroke-linecap="round" stroke-linejoin="round"/>
<path d="M209.805 231.265H118.541L134.678 153.273C135.05 151.454 136.518 150.16 138.213 150.156H222.458C223.463 150.16 224.411 150.667 225.035 151.534C225.659 152.4 225.891 153.532 225.665 154.609L209.805 231.265Z" fill="#A7A7A7" stroke="#1B1B1B" stroke-width="0.7" stroke-linecap="round" stroke-linejoin="round"/>
<path fill-rule="evenodd" clip-rule="evenodd" d="M212.446 231.265H121.183L137.32 153.273C137.692 151.454 139.159 150.16 140.854 150.156H225.099C226.104 150.16 227.053 150.667 227.677 151.534C228.301 152.4 228.532 153.532 228.306 154.609L212.446 231.265Z" stroke="#1B1B1B" stroke-width="0.7" stroke-linecap="round" stroke-linejoin="round"/>
<path d="M37.2251 202.98C62.4473 200.369 92.4813 204.239 92.4813 204.239C96.1691 214.033 95.4315 228.179 95.4315 228.179C95.4315 228.179 13.5612 250.283 5.25777 231.308C4.38464 229.312 3.09319 225.484 2.78606 223.743" fill="#1B1B1B"/>
<path d="M37.2251 202.98C62.4473 200.369 92.4813 204.239 92.4813 204.239C96.1691 214.033 95.4315 228.179 95.4315 228.179C95.4315 228.179 13.5612 250.283 5.25777 231.308C4.38464 229.312 3.09319 225.484 2.78606 223.743" stroke="#1B1B1B" stroke-width="0.7" stroke-linecap="round" stroke-linejoin="round"/>
<path d="M82.184 202.474C82.184 202.474 88.48 217.765 84.7788 230.752L95.5333 229.005C95.5333 229.005 96.8782 212.893 92.4813 204.239L82.184 202.474Z" fill="white" stroke="#1B1B1B" stroke-width="0.7" stroke-linecap="round" stroke-linejoin="round"/>
<ellipse cx="10.0069" cy="7.90436" rx="10.0069" ry="7.90436" transform="matrix(0.678777 -0.734345 0.666419 0.745577 167.398 188.056)" fill="white" stroke="#1B1B1B" stroke-width="0.7" stroke-linecap="round" stroke-linejoin="round"/>
<rect x="108.28" y="152.833" width="20.1179" height="4.3923" fill="white" stroke="#1B1B1B" stroke-width="0.7" stroke-linecap="round" stroke-linejoin="round"/>
<path d="M332.413 15C332.128 15.2035 332.022 15.6064 332.165 15.9453C332.326 16.2731 332.684 16.4185 333 16.285" stroke="#1B1B1B" stroke-width="0.7" stroke-linecap="round" stroke-linejoin="round"/>
</g>
<defs>
<filter id="filter0_d_1_330" x="131.65" y="0.650002" width="196.929" height="191.28" filterUnits="userSpaceOnUse" color-interpolation-filters="sRGB">
<feFlood flood-opacity="0" result="BackgroundImageFix"/>
<feColorMatrix in="SourceAlpha" type="matrix" values="0 0 0 0 0 0 0 0 0 0 0 0 0 0 0 0 0 0 127 0" result="hardAlpha"/>
<feOffset dx="5" dy="4"/>
<feGaussianBlur stdDeviation="2"/>
<feComposite in2="hardAlpha" operator="out"/>
<feColorMatrix type="matrix" values="0 0 0 0 0 0 0 0 0 0 0 0 0 0 0 0 0 0 0.25 0"/>
<feBlend mode="normal" in2="BackgroundImageFix" result="effect1_dropShadow_1_330"/>
<feBlend mode="normal" in="SourceGraphic" in2="effect1_dropShadow_1_330" result="shape"/>
</filter>
<filter id="filter1_i_1_330" x="0.649998" y="14.65" width="332.7" height="224.7" filterUnits="userSpaceOnUse" color-interpolation-filters="sRGB">
<feFlood flood-opacity="0" result="BackgroundImageFix"/>
<feBlend mode="normal" in="SourceGraphic" in2="BackgroundImageFix" result="shape"/>
<feColorMatrix in="SourceAlpha" type="matrix" values="0 0 0 0 0 0 0 0 0 0 0 0 0 0 0 0 0 0 127 0" result="hardAlpha"/>
<feOffset dx="4" dy="7"/>
<feComposite in2="hardAlpha" operator="arithmetic" k2="-1" k3="1"/>
<feColorMatrix type="matrix" values="0 0 0 0 0 0 0 0 0 0 0 0 0 0 0 0 0 0 0.25 0"/>
<feBlend mode="normal" in2="shape" result="effect1_innerShadow_1_330"/>
</filter>
</defs>
</svg>
